# xmcd
#
# Track frame offsets:
# 150
# 20033
# 38837
# 56622
# 74547
# 92602
# 111023
# 130144
# 149651
# 163121
# 181516
# 200459
# 215256
# 230621
# 247244
# 262152
# 276626
#
# Disc length: 3842 seconds
#
#
# Revision: 2
# Processed by: cddbd v1.5.1PL2 Copyright (c) Steve Scherf et al.
# Submitted via: FreeRIP 2.91 
#
DISCID=0b0f0011
DTITLE=dddd - ddddddddddddd
DYEAR=1900
DGENRE=Pop/Funk
TTITLE0=d - poio monopati
TTITLE1=d - d
TTITLE2=d - d
TTITLE3=d - d
TTITLE4=d - d
TTITLE5=d - d
TTITLE6=d - d
TTITLE7=d - ad
TTITLE8=s - ad
TTITLE9=s - ad
TTITLE10=sd - ad
TTITLE11=d - ad
TTITLE12=sd - da
TTITLE13=ad - ad
TTITLE14=ad - ad
TTITLE15=add - ad
TTITLE16=da - ad
EXTD=
EXTT0=
EXTT1=
EXTT2=
EXTT3=
EXTT4=
EXTT5=
EXTT6=
EXTT7=
EXTT8=
EXTT9=
EXTT10=
EXTT11=
EXTT12=
EXTT13=
EXTT14=
EXTT15=
EXTT16=
PLAYORDER=
